<?xml version="1.0" encoding="utf-8"?>
<!-- Generator: Adobe Illustrator 23.0.3, SVG Export Plug-In . SVG Version: 6.00 Build 0)  -->
<svg version="1.1" id="Layer_1" xmlns="http://www.w3.org/2000/svg" xmlns:xlink="http://www.w3.org/1999/xlink" x="0px" y="0px"
	 viewBox="0 0 512 512" style="enable-background:new 0 0 512 512;" xml:space="preserve">
<style type="text/css">
	.st0{fill:#E9022E;}
	.st1{fill:#E8D780;}
	.st2{fill:#020202;}
	.st3{fill:#FEFEFE;}
	.st4{fill:#FDFDFD;}
	.st5{fill:#EEEEEE;}
	.st6{fill:#F5F5F5;}
	.st7{fill:#010101;}
	.st8{fill:#FAFAFA;}
	.st9{fill:#D8D8D8;}
	.st10{fill:#030303;}
	.st11{fill:#F8F8F8;}
	.st12{fill:#E6E6E6;}
	.st13{fill:#060606;}
	.st14{fill:#040404;}
	.st15{fill:#181818;}
	.st16{fill:#101010;}
	.st17{fill:#121212;}
	.st18{fill:#FCFCFC;}
	.st19{fill:#0B0B0B;}
	.st20{fill:#0E0E0E;}
	.st21{fill:#FFFFFF;}
	.st22{fill:#723B22;}
	.st23{fill:#052625;}
	.st24{fill:#EAD6C7;}
	.st25{fill:#B07454;}
	.st26{fill:#78CDD4;}
</style>
<g>
	<path d="M257.7,447.5c-55.5,0-110.9,0-166.4,0c-6.2,0-12.4-0.7-18.6,0c-5.7,0.6-10-3.5-9.3-8.9c1.4-11.2-0.6-22.7,2.7-33.8
		c7.3-25.3,19.4-47.1,41.8-62.4c11.4-7.8,24.1-11.8,36.6-16.5c10.2-3.8,20.5-7.2,30.7-11.1c3.6-1.4,5.7,0.5,7.8,2.7
		c9.2,9.3,19.3,17.4,31,23.6c15.4,8.2,31.6,10.7,48.8,9.8c24.2-1.2,43.5-12.5,60.5-28.5c5.9-5.6,9.8-8.7,19.4-5
		c14.2,5.5,28.8,10.4,43.3,15.5c12.7,4.5,23.6,12.1,32.7,21.9c21.8,23.4,31.4,51.4,29.9,83.3c-0.3,6.2-3.9,9.5-9.8,9.5
		c-60.4,0-120.7,0-181.1,0C257.7,447.5,257.7,447.5,257.7,447.5z"/>
	<g>
		<path d="M365.5,193.1c6.1-20.7,0.6-40.3-5.6-59.8l0,0c-2.7-6.2-5.6-12.2-9-18c-7.8-11.5-16.9-21.8-28.1-30.1
			c-6.8-5-13.8-9.6-21.9-12.4c-5.2-1.8-10.3-3.4-15.4-5.7c-4.7-2.1-11.3-3.8-15.5-1.3c-20.8-3.5-44.6,1.1-44.6,1.1
			c-7.7,2.2-15.2,4.9-22.3,8.6c-5.5,3.7-11.1,7.3-16.3,11.3c-29.5,22.3-42.5,53.2-42.7,89.1c-0.1,13.5,0.2,26.9,0,40.5
			c-0.3,15.4,3.2,31,20.2,38.3c2.2,1,4.2,2.4,4.7,4.9c1,5.1,3.6,9.6,5.7,14.3c13.4,29.2,32.6,52.2,65.8,59.4
			c16.4,3.6,32.3,1.6,47.5-5.5c19.5-9.2,33.2-24.4,43.7-42.8c3.4-5.2,5-11.2,7.7-16.7l0,0c0.6-0.9,1.5-1.7,1.5-2.7
			c0.6-7.8,5.8-11.6,12.2-14.2c0.6-0.2,1-0.7,1.5-1.2c1.3-1.3,2.6-2.6,3.9-3.8c1.4-2.1,3.8-3.5,4.6-6.1c3.8-12.7,6.8-25.5,2.6-38.8
			C364.8,198.5,364.7,195.7,365.5,193.1z M271.9,280.3c-0.2,4.8-3.6,6.5-7.9,6.6c-2.8,0.1-5.5,0-8.3,0c0,0,0,0,0,0.1
			c-2.6,0-5.1,0.2-7.7,0c-4.4-0.4-8-2-8.2-7.2c-0.2-5.2,2.1-8.9,7.5-9.2c5.7-0.4,11.5-0.4,17.2,0.2
			C269.9,271.2,272.1,275.2,271.9,280.3z M352.8,218.7c-0.5,2.7-1,5.5-1.2,8.2c-0.8,8.2-3.8,11.1-12.3,11.1c-3.7,0-6.4,1.7-9,4.2
			c-8,7.8-16.8,13.1-28.9,13c-8.9-0.1-16-2.2-22.7-8.1c-12-10.6-33.4-10.4-45.6,0c-13.2,11.2-33.3,11.1-46.4-0.2
			c-3.4-2.9-6.5-6.2-10.5-8.3c-1.1-0.9-2.4-0.6-3.7-0.6c-9.1-0.2-11-1.7-12.6-10.8c-0.9-4.8-0.7-9.8-0.9-14.7
			c-0.3-5,2.5-7.2,7.6-7.3c1.7,0,3.3,0.4,5,0.8c7.5,1.7,10.9-1.1,11-8.8c0.1-9.4-0.3-18.8,0.1-28.2c0.4-9.4,2.4-11.4,11.7-11.2
			c5.9,0.1,11.4-1.2,17.1-2.2c5.2-0.9,9.2-4.4,13.7-6.8c2.6-1.5,4.6-3.6,6.1-6.3c2-3.6,4.6-4.1,7.7-1.1c11.4,10.8,25,17.6,39.5,23.1
			c11.6,4.4,23.6,7.3,36,8.3c5,0.4,6.4,3.7,7.6,7.4c2.2,6.7,3.2,13.7,6.6,20.1c2.7,5.3,6.2,6.8,11.9,5.8
			C351.1,204.1,354.7,208,352.8,218.7z"/>
		<path d="M225.7,206.3c-3,0.2-5.9,0.5-7.9,0.6c-1.6-0.2-2.2-0.3-2.9-0.4c-5.2-0.8-8.6,1.9-11.2,5.8c-1.6,2.3-0.2,4.5,1.4,6.4
			c3,3.4,6.3,5.7,11.2,3.3c2.5-1.2,5-0.6,7.5,0.4c4.4,1.7,7.4-0.4,10.1-3.4c1.6-1.8,3-4.1,1.5-6.4
			C233.1,209.2,230.4,206.1,225.7,206.3z"/>
		<path d="M294,206.3c-3,0.2-5.9,0.5-7.9,0.6c-1.6-0.2-2.2-0.3-2.9-0.4c-5.2-0.8-8.6,1.9-11.2,5.8c-1.6,2.3-0.2,4.5,1.4,6.4
			c3,3.4,6.3,5.7,11.2,3.3c2.5-1.2,5-0.6,7.5,0.4c4.4,1.7,7.4-0.4,10.1-3.4c1.6-1.8,3-4.1,1.5-6.4
			C301.5,209.2,298.8,206.1,294,206.3z"/>
	</g>
</g>
</svg>
