<?xml version="1.0" encoding="iso-8859-1"?>
<!-- Generator: Adobe Illustrator 19.0.0, SVG Export Plug-In . SVG Version: 6.00 Build 0)  -->
<svg version="1.1" id="Capa_1" xmlns="http://www.w3.org/2000/svg" xmlns:xlink="http://www.w3.org/1999/xlink" x="0px" y="0px"
	 viewBox="0 0 480 480" style="enable-background:new 0 0 480 480;" xml:space="preserve">
<g>
	<g>
		<path d="M255.881,448v-16h200.112v-16H255.881v-16h144.112v-16H255.881v-16h72.112v-16h-72.112v-16h48.112v-16h-48v-16h56v-16h-56
			v-16h104v-16h-104v-16h104v-16h-104v-16h112v-16h-112v-16h144v-16h-144v-16h144v-16h-144v-16h112V96h-112V80h112V64h-112V48h96V32
			h-96V16h64.32V0h-72.112v0.04c-0.072,0-0.136-0.04-0.208-0.04h-22.744c-40.616,0-77.344,21.248-95.848,55.464
			c-6.24,11.544-9.408,22.496-9.4,32.96l1.32,25.08c-11.536,1.592-26.672,4.8-32.72,19.448c-2.864,6.92-1.072,17.536-0.528,20.152
			c1.584,11.568,4.904,35.656,25.224,41.992c4.416,1.376,8.744,2.448,12.496,3.256l2.2,41.648c0,32.288,20.32,48.248,40.192,59.608
			c0.136,0.08,0.272,0.152,0.408,0.216c0.288,0.144,0.576,0.264,0.88,0.376l14.496,5.224l-0.08,41.04L44.841,400.528
			c-1.744,0.744-3.288,2.192-4.136,3.888L8.545,468.8c-0.96,2.464-0.616,5.44,0.872,7.616c1.488,2.176,4.144,3.584,6.784,3.584
			h231.472c4.424,0,8.208-3.792,8.208-8.208V464h216.112v-16H255.881z M118.065,179.808c-8.824-2.744-12.032-13.536-14.224-29.376
			c-0.84-4.208-1.064-9.848-0.456-11.376c2.48-5.992,9.768-8.12,18.784-9.504l1.064,20.128l1.68,32.048
			C122.713,181.176,120.385,180.536,118.065,179.808z M239.889,464h-0.008H28.809l24.856-49.744l140.816-54.744
			c3.16-1.152,5.4-4.344,5.408-7.704l0.08-40.576l39.92,14.384V464z M239.993,308.608l-64.448-23.216
			c-22.984-13.264-31.552-25.616-31.56-45.816l-2.544-48.32c0,0,0,0,0-0.008l-3.744-71.224c0-0.024-0.016-0.04-0.016-0.064
			L135.993,88c0-7.256,2.584-15.872,7.488-24.928C159.177,34.04,190.513,16,225.249,16h14.744V308.608z"/>
	</g>
</g>
<g>
</g>
<g>
</g>
<g>
</g>
<g>
</g>
<g>
</g>
<g>
</g>
<g>
</g>
<g>
</g>
<g>
</g>
<g>
</g>
<g>
</g>
<g>
</g>
<g>
</g>
<g>
</g>
<g>
</g>
</svg>
